<?xml version="1.0" standalone="no"?>
<!DOCTYPE svg PUBLIC "-//W3C//DTD SVG 20010904//EN"
 "http://www.w3.org/TR/2001/REC-SVG-20010904/DTD/svg10.dtd">
<svg version="1.0" xmlns="http://www.w3.org/2000/svg"
 width="219.000000pt" height="219.000000pt" viewBox="0 0 219.000000 219.000000"
 preserveAspectRatio="xMidYMid meet">
<metadata>
Created by potrace 1.14, written by Peter Selinger 2001-2017
</metadata>
<g transform="translate(0.000000,219.000000) scale(0.100000,-0.100000)"
fill="#000000" stroke="none">
<path d="M997 2174 c-1 -1 -24 -4 -52 -8 -63 -7 -186 -39 -250 -65 -351 -141
-621 -491 -662 -858 -11 -93 -8 -248 6 -328 32 -180 131 -388 243 -509 9 -10
15 -24 11 -29 -3 -6 -2 -7 4 -4 13 8 56 -37 46 -48 -5 -4 -3 -5 3 -2 6 4 22
-5 35 -19 65 -70 266 -187 378 -220 129 -38 182 -47 311 -49 150 -4 247 10
370 52 279 95 500 291 625 554 76 162 100 273 100 464 0 138 -6 185 -35 292
-107 384 -435 684 -835 764 -49 9 -289 20 -298 13z m499 -619 c13 -22 24 -44
24 -48 0 -4 -15 -14 -34 -22 -82 -35 -122 -156 -130 -403 -2 -35 0 -65 4 -67
4 -2 41 -8 84 -14 73 -9 126 -30 126 -51 0 -13 -71 -31 -145 -37 -68 -6 -68
-5 -72 -36 -35 -260 -74 -300 -293 -301 -109 -1 -118 0 -168 28 -66 37 -108
88 -122 150 -12 55 -1 86 32 86 34 0 57 -29 78 -100 28 -93 75 -130 167 -130
74 0 137 102 149 240 l6 68 -72 12 c-40 7 -93 10 -117 7 -41 -4 -44 -3 -41 17
5 36 62 56 161 56 l87 0 1 48 c1 83 14 222 24 272 5 28 39 111 46 115 28 18 3
28 -96 40 -27 3 -86 10 -130 16 -44 6 -126 11 -182 12 -95 2 -103 0 -127 -22
-18 -17 -26 -35 -26 -57 0 -28 11 -43 74 -100 84 -76 115 -129 100 -172 -15
-44 -47 -40 -99 13 -93 92 -150 268 -108 332 31 47 113 70 278 80 55 3 101 6
102 7 1 0 90 1 198 1 l196 0 25 -40z"/>
</g>
</svg>
